<?xml version="1.0" encoding="UTF-8"?>
<svg width="980px" height="680px" viewBox="0 0 980 680" version="1.1" xmlns="http://www.w3.org/2000/svg" xmlns:xlink="http://www.w3.org/1999/xlink">
    <title>WW American Express alt2</title>
    <defs>
        <rect id="path-1" x="0" y="0" width="900" height="600" rx="80"></rect>
        <filter x="-6.7%" y="-10.0%" width="113.3%" height="120.0%" filterUnits="objectBoundingBox" id="filter-2">
            <feMorphology radius="2.5" operator="dilate" in="SourceAlpha" result="shadowSpreadOuter1"></feMorphology>
            <feOffset dx="0" dy="0" in="shadowSpreadOuter1" result="shadowOffsetOuter1"></feOffset>
            <feGaussianBlur stdDeviation="17.5" in="shadowOffsetOuter1" result="shadowBlurOuter1"></feGaussianBlur>
            <feColorMatrix values="0 0 0 0 0   0 0 0 0 0   0 0 0 0 0  0 0 0 0.5 0" type="matrix" in="shadowBlurOuter1"></feColorMatrix>
        </filter>
    </defs>
    <g id="WW-American-Express-alt2" stroke="none" stroke-width="1" fill="none" fill-rule="evenodd">
        <g transform="translate(40, 40)">
            <g id="Rectangle">
                <use fill="black" fill-opacity="1" filter="url(#filter-2)" xlink:href="#path-1"></use>
                <use fill="#006FCF" fill-rule="evenodd" xlink:href="#path-1"></use>
            </g>
            <g id="Logo" transform="translate(50, 134.9305)" fill-rule="nonzero">
                <path d="M702.004454,140.757238 L762.583519,140.757238 L762.583519,7.58249852e-14 L696.659243,7.58249852e-14 L696.659243,19.5991091 L684.187082,7.58249852e-14 L627.171492,7.58249852e-14 L627.171492,24.9443207 L616.481069,7.58249852e-14 L511.358575,7.58249852e-14 C507.7951,7.58249852e-14 504.231626,1.78173719 500.668151,1.78173719 C497.104677,1.78173719 495.32294,3.56347439 491.759465,5.34521158 C488.195991,7.12694878 486.414254,7.12694878 482.85078,8.90868597 L482.85078,7.58249852e-14 L181.737194,7.58249852e-14 L172.828508,23.1625835 L163.919822,7.58249852e-14 L92.6503341,7.58249852e-14 L92.6503341,24.9443207 L81.9599109,7.58249852e-14 L24.9443207,7.58249852e-14 L0,60.5790646 L0,140.757238 L40.9799555,140.757238 L48.1069042,121.158129 L62.3608018,121.158129 L69.4877506,140.757238 L383.073497,140.757238 L383.073497,122.939866 L395.545657,140.757238 L482.85078,140.757238 L482.85078,130.066815 C484.632517,131.848552 488.195991,131.848552 489.977728,133.63029 C491.759465,135.412027 495.32294,135.412027 497.104677,137.193764 C500.668151,138.975501 504.231626,138.975501 507.7951,138.975501 L571.937639,138.975501 L579.064588,119.376392 L593.318486,119.376392 L600.445434,138.975501 L687.750557,138.975501 L687.750557,121.158129 L702.004454,140.757238 L702.004454,140.757238 Z M800,318.930958 L800,187.082405 L310.022272,187.082405 L297.550111,204.899777 L285.077951,187.082405 L142.538976,187.082405 L142.538976,327.839644 L285.077951,327.839644 L297.550111,310.022272 L310.022272,327.839644 L399.109131,327.839644 L399.109131,297.550111 L395.545657,297.550111 C408.017817,297.550111 418.708241,295.768374 427.616927,292.2049 L427.616927,329.621381 L491.759465,329.621381 L491.759465,311.804009 L504.231626,329.621381 L769.710468,329.621381 C780.400891,326.057906 791.091314,324.276169 800,318.930958 L800,318.930958 Z" id="Shape" fill="#FFFFFF"></path>
                <path d="M769.710468,285.077951 L721.603563,285.077951 L721.603563,304.67706 L767.928731,304.67706 C787.52784,304.67706 800,292.2049 800,274.387528 C800,256.570156 789.309577,247.66147 771.492205,247.66147 L750.111359,247.66147 C744.766147,247.66147 741.202673,244.097996 741.202673,238.752784 C741.202673,233.407572 744.766147,229.844098 750.111359,229.844098 L791.091314,229.844098 L800,210.244989 L751.893096,210.244989 C732.293987,210.244989 719.821826,222.717149 719.821826,238.752784 C719.821826,256.570156 730.512249,265.478842 748.329621,265.478842 L769.710468,265.478842 C775.055679,265.478842 778.619154,269.042316 778.619154,274.387528 C780.400891,281.514477 776.837416,285.077951 769.710468,285.077951 L769.710468,285.077951 Z M682.405345,285.077951 L634.298441,285.077951 L634.298441,304.67706 L680.623608,304.67706 C700.222717,304.67706 712.694878,292.2049 712.694878,274.387528 C712.694878,256.570156 702.004454,247.66147 684.187082,247.66147 L662.806236,247.66147 C657.461024,247.66147 653.89755,244.097996 653.89755,238.752784 C653.89755,233.407572 657.461024,229.844098 662.806236,229.844098 L703.786192,229.844098 L712.694878,210.244989 L664.587973,210.244989 C644.988864,210.244989 632.516704,222.717149 632.516704,238.752784 C632.516704,256.570156 643.207127,265.478842 661.024499,265.478842 L682.405345,265.478842 C687.750557,265.478842 691.314031,269.042316 691.314031,274.387528 C693.095768,281.514477 687.750557,285.077951 682.405345,285.077951 L682.405345,285.077951 Z M620.044543,228.062361 L620.044543,208.463252 L545.211581,208.463252 L545.211581,302.895323 L620.044543,302.895323 L620.044543,283.296214 L566.592428,283.296214 L566.592428,263.697105 L618.262806,263.697105 L618.262806,244.097996 L566.592428,244.097996 L566.592428,226.280624 L620.044543,226.280624 L620.044543,228.062361 L620.044543,228.062361 Z M498.886414,228.062361 C507.7951,228.062361 511.358575,233.407572 511.358575,238.752784 C511.358575,244.097996 507.7951,249.443207 498.886414,249.443207 L472.160356,249.443207 L472.160356,226.280624 L498.886414,228.062361 L498.886414,228.062361 Z M472.160356,269.042316 L482.85078,269.042316 L511.358575,302.895323 L538.084633,302.895323 L506.013363,267.260579 C522.048998,263.697105 530.957684,253.006682 530.957684,238.752784 C530.957684,220.935412 518.485523,208.463252 498.886414,208.463252 L448.997773,208.463252 L448.997773,302.895323 L470.378619,302.895323 L472.160356,269.042316 Z M415.144766,240.534521 C415.144766,247.66147 411.581292,253.006682 402.672606,253.006682 L374.164811,253.006682 L374.164811,228.062361 L400.890869,228.062361 C409.799555,228.062361 415.144766,233.407572 415.144766,240.534521 L415.144766,240.534521 Z M352.783964,208.463252 L352.783964,302.895323 L374.164811,302.895323 L374.164811,270.824053 L402.672606,270.824053 C422.271715,270.824053 436.525612,258.351893 436.525612,238.752784 C436.525612,220.935412 424.053452,206.681514 404.454343,206.681514 L352.783964,208.463252 L352.783964,208.463252 Z M320.712695,302.895323 L347.438753,302.895323 L310.022272,254.788419 L347.438753,208.463252 L320.712695,208.463252 L297.550111,238.752784 L274.387528,208.463252 L247.66147,208.463252 L285.077951,254.788419 L247.66147,301.113586 L274.387528,301.113586 L297.550111,270.824053 L320.712695,302.895323 L320.712695,302.895323 Z M240.534521,228.062361 L240.534521,208.463252 L165.701559,208.463252 L165.701559,302.895323 L240.534521,302.895323 L240.534521,283.296214 L187.082405,283.296214 L187.082405,263.697105 L238.752784,263.697105 L238.752784,244.097996 L187.082405,244.097996 L187.082405,226.280624 L240.534521,226.280624 L240.534521,228.062361 L240.534521,228.062361 Z M673.496659,60.5790646 L710.91314,117.594655 L737.639198,117.594655 L737.639198,23.1625835 L716.258352,23.1625835 L716.258352,85.5233853 L710.91314,76.6146993 L677.060134,23.1625835 L648.552339,23.1625835 L648.552339,117.594655 L669.933185,117.594655 L669.933185,53.4521158 L673.496659,60.5790646 L673.496659,60.5790646 Z M580.846325,58.7973274 L587.973274,39.1982183 L595.100223,58.7973274 L604.008909,80.1781737 L571.937639,80.1781737 L580.846325,58.7973274 L580.846325,58.7973274 Z M618.262806,117.594655 L641.42539,117.594655 L600.445434,23.1625835 L571.937639,23.1625835 L530.957684,117.594655 L554.120267,117.594655 L563.028953,97.9955457 L609.35412,97.9955457 L618.262806,117.594655 L618.262806,117.594655 Z M518.485523,117.594655 L527.394209,97.9955457 L522.048998,97.9955457 C506.013363,97.9955457 497.104677,87.3051225 497.104677,71.2694878 L497.104677,69.4877506 C497.104677,53.4521158 506.013363,42.7616927 522.048998,42.7616927 L545.211581,42.7616927 L545.211581,23.1625835 L520.267261,23.1625835 C491.759465,23.1625835 475.723831,42.7616927 475.723831,69.4877506 L475.723831,71.2694878 C475.723831,99.7772829 491.759465,117.594655 518.485523,117.594655 Z M438.30735,117.594655 L459.688196,117.594655 L459.688196,24.9443207 L438.30735,24.9443207 L438.30735,117.594655 Z M391.982183,42.7616927 C400.890869,42.7616927 404.454343,48.1069042 404.454343,53.4521158 C404.454343,58.7973274 400.890869,64.142539 391.982183,64.142539 L365.256125,64.142539 L365.256125,40.9799555 L391.982183,42.7616927 L391.982183,42.7616927 Z M365.256125,83.7416481 L375.946548,83.7416481 L404.454343,117.594655 L431.180401,117.594655 L399.109131,81.9599109 C415.144766,78.3964365 424.053452,67.7060134 424.053452,53.4521158 C424.053452,35.6347439 411.581292,23.1625835 391.982183,23.1625835 L342.093541,23.1625835 L342.093541,117.594655 L363.474388,117.594655 L365.256125,83.7416481 Z M326.057906,42.7616927 L326.057906,23.1625835 L251.224944,23.1625835 L251.224944,117.594655 L326.057906,117.594655 L326.057906,97.9955457 L272.605791,97.9955457 L272.605791,78.3964365 L324.276169,78.3964365 L324.276169,58.7973274 L272.605791,58.7973274 L272.605791,40.9799555 L326.057906,40.9799555 L326.057906,42.7616927 L326.057906,42.7616927 Z M163.919822,117.594655 L183.518931,117.594655 L210.244989,40.9799555 L210.244989,117.594655 L231.625835,117.594655 L231.625835,23.1625835 L195.991091,23.1625835 L174.610245,87.3051225 L153.229399,23.1625835 L117.594655,23.1625835 L117.594655,117.594655 L138.975501,117.594655 L138.975501,40.9799555 L163.919822,117.594655 Z M48.1069042,58.7973274 L55.233853,39.1982183 L62.3608018,58.7973274 L71.2694878,80.1781737 L39.1982183,80.1781737 L48.1069042,58.7973274 L48.1069042,58.7973274 Z M85.5233853,117.594655 L108.685969,117.594655 L67.7060134,23.1625835 L40.9799555,23.1625835 L7.58249852e-14,117.594655 L23.1625835,117.594655 L32.0712695,97.9955457 L78.3964365,97.9955457 L85.5233853,117.594655 Z" id="Shape" fill="#006FCF"></path>
            </g>
        </g>
    </g>
</svg>