<?xml version="1.0" encoding="UTF-8"?>
<svg width="980px" height="680px" viewBox="0 0 980 680" version="1.1" xmlns="http://www.w3.org/2000/svg" xmlns:xlink="http://www.w3.org/1999/xlink">
    <title>WW Maestro</title>
    <defs>
        <linearGradient x1="50%" y1="0%" x2="50%" y2="100%" id="linearGradient-1">
            <stop stop-color="#FFFFFF" offset="0%"></stop>
            <stop stop-color="#EDEDED" offset="100%"></stop>
        </linearGradient>
        <rect id="path-2" x="0" y="0" width="900" height="600" rx="80"></rect>
        <filter x="-6.7%" y="-10.0%" width="113.3%" height="120.0%" filterUnits="objectBoundingBox" id="filter-3">
            <feMorphology radius="2.5" operator="dilate" in="SourceAlpha" result="shadowSpreadOuter1"></feMorphology>
            <feOffset dx="0" dy="0" in="shadowSpreadOuter1" result="shadowOffsetOuter1"></feOffset>
            <feGaussianBlur stdDeviation="17.5" in="shadowOffsetOuter1" result="shadowBlurOuter1"></feGaussianBlur>
            <feColorMatrix values="0 0 0 0 0   0 0 0 0 0   0 0 0 0 0  0 0 0 0.5 0" type="matrix" in="shadowBlurOuter1"></feColorMatrix>
        </filter>
    </defs>
    <g id="WW-Maestro" stroke="none" stroke-width="1" fill="none" fill-rule="evenodd">
        <g transform="translate(40, 40)">
            <g id="Rectangle">
                <use fill="black" fill-opacity="1" filter="url(#filter-3)" xlink:href="#path-2"></use>
                <use fill="url(#linearGradient-1)" fill-rule="evenodd" xlink:href="#path-2"></use>
            </g>
            <g id="Logo" transform="translate(128, 50)" fill-rule="nonzero">
                <g id="Group" transform="translate(0, -0)">
                    <polygon id="Path" fill="#7375CF" points="409.413282 355.89942 235.009671 355.89942 235.009671 42.5531915 409.413282 42.5531915"></polygon>
                    <path d="M246.292714,199.226306 C246.292714,135.718891 275.950999,78.9813024 322.372663,42.5531915 C288.523533,15.7962605 245.647969,0 199.226306,0 C89.2972276,0 0,89.2972276 0,199.226306 C0,309.155384 89.2972276,398.452611 199.226306,398.452611 C245.647969,398.452611 288.523533,382.656351 322.372663,355.89942 C275.950999,319.471309 246.292714,262.73372 246.292714,199.226306" id="Path" fill="#EB001B"></path>
                    <path d="M644.745326,199.226306 C644.745326,309.155384 555.448098,398.452611 445.51902,398.452611 C399.097357,398.452611 356.221792,382.656351 322.372663,355.89942 C368.794326,319.471309 398.452611,262.73372 398.452611,199.226306 C398.452611,135.718891 368.794326,78.9813024 322.372663,42.5531915 C356.221792,15.7962605 399.097357,0 445.51902,0 C555.448098,0 644.745326,89.2972276 644.745326,199.226306" id="Path" fill="#00A2E5"></path>
                </g>
                <g id="Group" transform="translate(105.0935, 429.4004)" fill="#000000">
                    <path d="M362.991618,15.1515152 C365.248227,15.1515152 368.794326,15.4738878 371.050935,16.4410058 L367.504836,27.4016763 C364.925854,26.4345583 362.669246,26.1121857 360.412637,26.1121857 C352.998066,26.1121857 349.129594,30.9477756 349.129594,39.6518375 L349.129594,69.3101225 L337.524178,69.3101225 L337.524178,16.4410058 L348.807221,16.4410058 L348.807221,22.8884591 C352.030948,18.0528691 356.544165,15.1515152 362.991618,15.1515152 M320.438427,26.756931 L301.740812,26.756931 L301.740812,50.6125081 C301.740812,55.7704707 303.675048,59.31657 309.477756,59.31657 C312.37911,59.31657 316.247582,58.349452 319.793681,56.415216 L323.017408,66.4087685 C319.471309,68.9877498 313.668601,70.5996132 308.510638,70.5996132 C294.970986,70.5996132 290.135397,63.1850419 290.135397,50.9348807 L290.135397,26.756931 L279.497099,26.756931 L279.497099,16.1186331 L290.135397,16.1186331 L290.135397,0 L301.740812,0 L301.740812,16.1186331 L320.438427,16.1186331 L320.438427,26.756931 L320.438427,26.756931 Z M173.11412,38.0399742 C174.403611,30.3030303 178.916828,25.1450677 187.298517,25.1450677 C194.713088,25.1450677 199.548678,29.658285 200.838169,38.0399742 L173.11412,38.0399742 Z M212.765957,42.8755642 C212.765957,26.4345583 202.450032,15.1515152 187.62089,15.1515152 C172.147002,15.1515152 161.186331,26.4345583 161.186331,42.8755642 C161.186331,59.6389426 172.469375,70.5996132 188.265635,70.5996132 C196.324952,70.5996132 203.41715,68.6653772 209.864603,63.1850419 L204.061896,54.8033527 C199.548678,58.349452 194.068343,60.2836879 188.588008,60.2836879 C181.173436,60.2836879 174.403611,56.7375887 172.791747,47.3887814 L212.121212,47.3887814 C212.443585,45.7769181 212.765957,44.4874275 212.765957,42.8755642 M263.378466,29.9806576 C260.154739,28.0464217 253.707286,25.4674404 246.93746,25.4674404 C240.490006,25.4674404 236.943907,27.724049 236.943907,31.592521 C236.943907,35.1386202 240.812379,36.1057382 245.970342,36.7504836 L251.450677,37.3952289 C263.056093,39.0070922 269.825919,43.8426821 269.825919,53.1914894 C269.825919,63.1850419 261.121857,70.5996132 245.647969,70.5996132 C236.943907,70.5996132 228.884591,68.3430045 222.75951,63.8297872 L228.239845,54.8033527 C232.108317,57.7047066 237.911025,60.2836879 245.970342,60.2836879 C253.707286,60.2836879 257.89813,58.0270793 257.89813,53.8362347 C257.89813,50.9348807 254.996776,49.3230174 248.549323,48.3558994 L243.068988,47.7111541 C231.141199,46.0992908 224.693746,40.6189555 224.693746,32.2372663 C224.693746,21.5989684 233.397808,15.1515152 246.615087,15.1515152 C254.996776,15.1515152 262.73372,17.0857511 268.214055,20.6318504 L263.378466,29.9806576 Z M405.222437,25.789813 C402.965828,25.789813 400.70922,26.1121857 398.774984,27.0793037 C396.840748,28.0464217 394.906512,29.0135397 393.617021,30.625403 C392.327531,32.2372663 391.03804,33.8491296 390.070922,36.1057382 C389.103804,38.0399742 388.781431,40.6189555 388.781431,42.8755642 C388.781431,45.4545455 389.103804,47.7111541 390.070922,49.6453901 C391.03804,51.579626 392.005158,53.513862 393.617021,55.1257253 C395.228885,56.7375887 396.840748,57.7047066 398.774984,58.6718246 C400.70922,59.6389426 402.965828,59.9613153 405.222437,59.9613153 C407.479046,59.9613153 409.735654,59.6389426 411.66989,58.6718246 C413.604126,57.7047066 415.538362,56.7375887 416.827853,55.1257253 C418.439716,53.513862 419.406834,51.9019987 420.373952,49.6453901 C421.34107,47.7111541 421.663443,45.1321728 421.663443,42.8755642 C421.663443,40.2965828 421.34107,38.0399742 420.373952,36.1057382 C419.406834,34.1715023 418.439716,32.2372663 416.827853,30.625403 C415.21599,29.0135397 413.604126,28.0464217 411.66989,27.0793037 C409.735654,26.4345583 407.479046,25.789813 405.222437,25.789813 M405.222437,15.1515152 C409.413282,15.1515152 413.281754,15.7962605 416.50548,17.4081238 C420.05158,18.6976144 422.952934,20.6318504 425.531915,23.2108317 C428.110896,25.789813 430.045132,28.691167 431.656995,31.9148936 C432.946486,35.4609929 433.913604,39.0070922 433.913604,42.8755642 C433.913604,46.7440361 433.268859,50.6125081 431.656995,53.8362347 C430.367505,57.382334 428.110896,60.2836879 425.531915,62.5402966 C422.952934,65.1192779 420.05158,67.0535139 416.50548,68.3430045 C412.959381,69.6324952 409.090909,70.5996132 405.222437,70.5996132 C401.031593,70.5996132 397.163121,69.9548678 393.939394,68.3430045 C390.393295,67.0535139 387.491941,65.1192779 384.912959,62.5402966 C382.333978,59.9613153 380.399742,57.0599613 378.787879,53.8362347 C377.498388,50.2901354 376.53127,46.7440361 376.53127,42.8755642 C376.53127,39.0070922 377.176015,35.1386202 378.787879,31.9148936 C380.077369,28.3687943 382.333978,25.4674404 384.912959,23.2108317 C387.491941,20.6318504 390.393295,18.6976144 393.939394,17.4081238 C397.163121,15.7962605 401.031593,15.1515152 405.222437,15.1515152 M106.060606,42.8755642 C106.060606,33.5267569 112.185687,25.789813 122.179239,25.789813 C131.850419,25.789813 137.9755,33.2043843 137.9755,42.8755642 C137.9755,52.546744 131.528046,59.6389426 122.179239,59.6389426 C112.185687,59.6389426 106.060606,52.2243714 106.060606,42.8755642 M148.93617,42.8755642 L148.93617,16.4410058 L137.330754,16.4410058 L137.330754,22.8884591 C133.784655,18.0528691 128.30432,15.1515152 120.567376,15.1515152 C105.738233,15.1515152 94.1328175,26.756931 94.1328175,42.8755642 C94.1328175,58.9941973 105.738233,70.5996132 120.567376,70.5996132 C127.981947,70.5996132 133.462282,67.6982592 137.330754,62.8626692 L137.330754,69.3101225 L148.93617,69.3101225 L148.93617,42.8755642 Z M84.139265,69.3101225 L84.139265,36.1057382 C84.139265,23.5332044 76.0799484,15.1515152 63.1850419,15.1515152 C56.415216,15.1515152 49.3230174,17.0857511 44.4874275,24.5003224 C40.9413282,18.6976144 35.1386202,15.1515152 27.0793037,15.1515152 C21.5989684,15.1515152 15.7962605,16.7633785 11.6054159,22.8884591 L11.6054159,16.4410058 L0,16.4410058 L0,69.3101225 L11.6054159,69.3101225 L11.6054159,39.9742102 C11.6054159,30.9477756 16.7633785,25.789813 24.5003224,25.789813 C32.2372663,25.789813 36.1057382,30.625403 36.1057382,39.6518375 L36.1057382,68.9877498 L47.7111541,68.9877498 L47.7111541,39.6518375 C47.7111541,30.625403 53.1914894,25.4674404 60.6060606,25.4674404 C68.3430045,25.4674404 72.2114765,30.3030303 72.2114765,39.3294649 L72.2114765,68.6653772 L84.139265,68.6653772 L84.139265,69.3101225 Z" id="Shape"></path>
                </g>
            </g>
        </g>
    </g>
</svg>