<?xml version="1.0" encoding="UTF-8"?>
<svg width="980px" height="680px" viewBox="0 0 980 680" version="1.1" xmlns="http://www.w3.org/2000/svg" xmlns:xlink="http://www.w3.org/1999/xlink">
    <title>WW Mastercard</title>
    <defs>
        <linearGradient x1="50%" y1="0%" x2="50%" y2="100%" id="linearGradient-1">
            <stop stop-color="#FFFFFF" offset="0%"></stop>
            <stop stop-color="#EDEDED" offset="100%"></stop>
        </linearGradient>
        <rect id="path-2" x="0" y="0" width="900" height="600" rx="80"></rect>
        <filter x="-6.7%" y="-10.0%" width="113.3%" height="120.0%" filterUnits="objectBoundingBox" id="filter-3">
            <feMorphology radius="2.5" operator="dilate" in="SourceAlpha" result="shadowSpreadOuter1"></feMorphology>
            <feOffset dx="0" dy="0" in="shadowSpreadOuter1" result="shadowOffsetOuter1"></feOffset>
            <feGaussianBlur stdDeviation="17.5" in="shadowOffsetOuter1" result="shadowBlurOuter1"></feGaussianBlur>
            <feColorMatrix values="0 0 0 0 0   0 0 0 0 0   0 0 0 0 0  0 0 0 0.5 0" type="matrix" in="shadowBlurOuter1"></feColorMatrix>
        </filter>
    </defs>
    <g id="WW-Mastercard" stroke="none" stroke-width="1" fill="none" fill-rule="evenodd">
        <g transform="translate(40, 40)">
            <g id="Rectangle">
                <use fill="black" fill-opacity="1" filter="url(#filter-3)" xlink:href="#path-2"></use>
                <use fill="url(#linearGradient-1)" fill-rule="evenodd" xlink:href="#path-2"></use>
            </g>
            <g id="Logo" transform="translate(128, 50)" fill-rule="nonzero">
                <path d="M116.688144,498.904639 L116.688144,465.721649 C116.688144,453.028351 108.956186,444.716495 95.6829897,444.716495 C89.0463918,444.716495 81.8298969,446.907216 76.8685567,454.123711 C73.0025773,448.06701 67.4613402,444.716495 59.1494845,444.716495 C53.6082474,444.716495 48.0670103,446.391753 43.685567,452.448454 L43.685567,445.811856 L32.0876289,445.811856 L32.0876289,498.904639 L43.685567,498.904639 L43.685567,469.587629 C43.685567,460.180412 48.6469072,455.734536 56.378866,455.734536 C64.1108247,455.734536 67.9768041,460.695876 67.9768041,469.587629 L67.9768041,498.904639 L79.5747423,498.904639 L79.5747423,469.587629 C79.5747423,460.180412 85.1159794,455.734536 92.2680412,455.734536 C100,455.734536 103.865979,460.695876 103.865979,469.587629 L103.865979,498.904639 L116.688144,498.904639 Z M288.724227,445.811856 L269.909794,445.811856 L269.909794,429.768041 L258.311856,429.768041 L258.311856,445.811856 L247.809278,445.811856 L247.809278,456.314433 L258.311856,456.314433 L258.311856,480.670103 C258.311856,492.847938 263.273196,500 276.546392,500 C281.507732,500 287.048969,498.324742 290.914948,496.134021 L287.564433,486.146907 C284.213918,488.337629 280.347938,488.917526 277.57732,488.917526 C272.036082,488.917526 269.845361,485.56701 269.845361,480.090206 L269.845361,456.314433 L288.659794,456.314433 L288.659794,445.811856 L288.724227,445.811856 Z M387.177835,444.652062 C380.541237,444.652062 376.095361,448.002577 373.324742,452.384021 L373.324742,445.747423 L361.726804,445.747423 L361.726804,498.840206 L373.324742,498.840206 L373.324742,468.943299 C373.324742,460.115979 377.190722,455.090206 384.407216,455.090206 C386.597938,455.090206 389.368557,455.670103 391.623711,456.185567 L394.974227,445.103093 C392.654639,444.652062 389.368557,444.652062 387.177835,444.652062 L387.177835,444.652062 Z M238.402062,450.193299 C232.860825,446.32732 225.128866,444.652062 216.81701,444.652062 C203.543814,444.652062 194.716495,451.28866 194.716495,461.791237 C194.716495,470.618557 201.353093,475.64433 212.951031,477.255155 L218.492268,477.835052 C224.548969,478.930412 227.899485,480.60567 227.899485,483.376289 C227.899485,487.242268 223.453608,490.012887 215.721649,490.012887 C207.989691,490.012887 201.868557,487.242268 198.002577,484.471649 L192.46134,493.298969 C198.518041,497.744845 206.829897,499.935567 215.141753,499.935567 C230.60567,499.935567 239.497423,492.719072 239.497423,482.796392 C239.497423,473.389175 232.280928,468.427835 221.262887,466.752577 L215.721649,466.17268 C210.760309,465.592784 206.89433,464.497423 206.89433,461.21134 C206.89433,457.345361 210.760309,455.154639 216.881443,455.154639 C223.518041,455.154639 230.154639,457.925258 233.505155,459.600515 L238.402062,450.193299 L238.402062,450.193299 Z M546.971649,444.652062 C540.335052,444.652062 535.889175,448.002577 533.118557,452.384021 L533.118557,445.747423 L521.520619,445.747423 L521.520619,498.840206 L533.118557,498.840206 L533.118557,468.943299 C533.118557,460.115979 536.984536,455.090206 544.201031,455.090206 C546.391753,455.090206 549.162371,455.670103 551.417526,456.185567 L554.768041,445.231959 C552.512887,444.652062 549.226804,444.652062 546.971649,444.652062 L546.971649,444.652062 Z M398.775773,472.358247 C398.775773,488.402062 409.858247,500 426.997423,500 C434.729381,500 440.270619,498.324742 445.811856,493.943299 L440.270619,484.536082 C435.824742,487.886598 431.443299,489.497423 426.417526,489.497423 C417.010309,489.497423 410.373711,482.860825 410.373711,472.358247 C410.373711,462.371134 417.010309,455.734536 426.417526,455.219072 C431.378866,455.219072 435.824742,456.89433 440.270619,460.180412 L445.811856,450.773196 C440.270619,446.32732 434.729381,444.716229 426.997423,444.716229 C409.858247,444.652062 398.775773,456.314433 398.775773,472.358247 L398.775773,472.358247 L398.775773,472.358247 Z M506.056701,472.358247 L506.056701,445.811856 L494.458763,445.811856 L494.458763,452.448454 C490.592784,447.487113 485.051546,444.716495 477.835052,444.716495 C462.886598,444.716495 451.28866,456.314433 451.28866,472.358247 C451.28866,488.402062 462.886598,500 477.835052,500 C485.56701,500 491.108247,497.229381 494.458763,492.268041 L494.458763,498.904639 L506.056701,498.904639 L506.056701,472.358247 L506.056701,472.358247 Z M463.466495,472.358247 C463.466495,462.951031 469.523196,455.219072 479.510309,455.219072 C488.917526,455.219072 495.554124,462.435567 495.554124,472.358247 C495.554124,481.765464 488.917526,489.497423 479.510309,489.497423 C469.587629,488.917526 463.466495,481.701031 463.466495,472.358247 L463.466495,472.358247 Z M324.677835,444.652062 C309.213918,444.652062 298.131443,455.734536 298.131443,472.293814 C298.131443,488.917526 309.213918,499.935567 325.257732,499.935567 C332.989691,499.935567 340.721649,497.744845 346.842784,492.719072 L341.301546,484.407216 C336.85567,487.757732 331.314433,489.948454 325.837629,489.948454 C318.621134,489.948454 311.469072,486.597938 309.793814,477.255155 L349.033505,477.255155 C349.033505,475.579897 349.033505,474.484536 349.033505,472.809278 C349.548969,455.734536 339.561856,444.652062 324.677835,444.652062 L324.677835,444.652062 L324.677835,444.652062 Z M324.677835,454.639175 C331.89433,454.639175 336.85567,459.085052 337.951031,467.332474 L310.309278,467.332474 C311.404639,460.180412 316.365979,454.639175 324.677835,454.639175 L324.677835,454.639175 Z M612.822165,472.358247 L612.822165,424.806701 L601.224227,424.806701 L601.224227,452.448454 C597.358247,447.487113 591.81701,444.716495 584.600515,444.716495 C569.652062,444.716495 558.054124,456.314433 558.054124,472.358247 C558.054124,488.402062 569.652062,500 584.600515,500 C592.332474,500 597.873711,497.229381 601.224227,492.268041 L601.224227,498.904639 L612.822165,498.904639 L612.822165,472.358247 L612.822165,472.358247 Z M570.231959,472.358247 C570.231959,462.951031 576.28866,455.219072 586.275773,455.219072 C595.68299,455.219072 602.319588,462.435567 602.319588,472.358247 C602.319588,481.765464 595.68299,489.497423 586.275773,489.497423 C576.28866,488.917526 570.231959,481.701031 570.231959,472.358247 L570.231959,472.358247 Z M181.958763,472.358247 L181.958763,445.811856 L170.360825,445.811856 L170.360825,452.448454 C166.494845,447.487113 160.953608,444.716495 153.737113,444.716495 C138.78866,444.716495 127.190722,456.314433 127.190722,472.358247 C127.190722,488.402062 138.78866,500 153.737113,500 C161.469072,500 167.010309,497.229381 170.360825,492.268041 L170.360825,498.904639 L181.958763,498.904639 L181.958763,472.358247 L181.958763,472.358247 Z M138.853093,472.358247 C138.853093,462.951031 144.909794,455.219072 154.896907,455.219072 C164.304124,455.219072 170.940722,462.435567 170.940722,472.358247 C170.940722,481.765464 164.304124,489.497423 154.896907,489.497423 C144.909794,488.917526 138.853093,481.701031 138.853093,472.358247 Z" id="XMLID_1775_" fill="#000000"></path>
                <g id="Group">
                    <rect id="rect19" fill="#FF5A00" x="234.536082" y="42.5902062" width="174.226804" height="313.015464"></rect>
                    <path d="M246.134021,199.097938 C246.134021,135.502577 276.030928,79.0592784 321.907216,42.5902062 C288.14433,16.0438144 245.554124,0 199.097938,0 C89.0463918,0 0,89.0463918 0,199.097938 C0,309.149485 89.0463918,398.195876 199.097938,398.195876 C245.554124,398.195876 288.14433,382.152062 321.907216,355.60567 C275.966495,319.652062 246.134021,262.693299 246.134021,199.097938 Z" id="XMLID_330_" fill="#EB001B"></path>
                    <path d="M643.814433,199.097938 C643.814433,309.149485 554.768041,398.195876 444.716495,398.195876 C398.260309,398.195876 355.670103,382.152062 321.907216,355.60567 C368.363402,319.072165 397.680412,262.693299 397.680412,199.097938 C397.680412,135.502577 367.783505,79.0592784 321.907216,42.5902062 C355.60567,16.0438144 398.195876,0 444.652062,0 C554.768041,0 643.814433,89.6262887 643.814433,199.097938 Z" id="path22" fill="#F79E1B"></path>
                </g>
            </g>
        </g>
    </g>
</svg>