<?xml version="1.0" encoding="UTF-8"?>
<svg width="980px" height="680px" viewBox="0 0 980 680" version="1.1" xmlns="http://www.w3.org/2000/svg" xmlns:xlink="http://www.w3.org/1999/xlink">
    <title>WW PayPal Express text heritage alt</title>
    <defs>
        <rect id="path-1" x="2.84217094e-14" y="0" width="900" height="600" rx="80"></rect>
        <filter x="-6.7%" y="-10.0%" width="113.3%" height="120.0%" filterUnits="objectBoundingBox" id="filter-2">
            <feMorphology radius="2.5" operator="dilate" in="SourceAlpha" result="shadowSpreadOuter1"></feMorphology>
            <feOffset dx="0" dy="0" in="shadowSpreadOuter1" result="shadowOffsetOuter1"></feOffset>
            <feGaussianBlur stdDeviation="17.5" in="shadowOffsetOuter1" result="shadowBlurOuter1"></feGaussianBlur>
            <feColorMatrix values="0 0 0 0 0   0 0 0 0 0   0 0 0 0 0  0 0 0 0.5 0" type="matrix" in="shadowBlurOuter1"></feColorMatrix>
        </filter>
    </defs>
    <g id="WW-PayPal-Express-text-heritage-alt" stroke="none" stroke-width="1" fill="none" fill-rule="evenodd">
        <g transform="translate(40, 40)">
            <g id="Rectangle">
                <use fill="black" fill-opacity="1" filter="url(#filter-2)" xlink:href="#path-1"></use>
                <use fill="#FFC43B" fill-rule="evenodd" xlink:href="#path-1"></use>
            </g>
            <g id="Logo" transform="translate(50.4145, 192.4134)" fill-rule="nonzero">
                <path d="M31.6252628,0 C29.3005217,0 27.3259927,1.68768865 26.9624392,3.98574691 L0.0528107062,174.639086 C-0.145070817,175.900631 0.218834454,177.185605 1.04881817,178.156058 C1.87880188,179.12651 3.09178822,179.685476 4.36875757,179.685476 L36.2814157,179.685476 C38.6028214,179.685476 40.5806858,177.994452 40.9442393,175.699729 L48.849026,125.586049 C49.2092442,123.291326 51.1871085,121.600302 53.5118496,121.600302 L82.5260859,121.600302 C116.426614,121.600302 145.204041,96.8653237 150.460557,63.3483607 C155.760433,29.5478928 129.354443,0.0733777674 91.9284462,0 L31.6252628,0 Z M62.6473817,38.0964027 L85.861439,38.0964027 C104.973012,38.0964027 111.196781,49.3732314 109.228923,61.8441165 C107.261064,74.3416844 97.5952111,83.5472589 79.107349,83.5472589 L55.4797079,83.5472589 L62.6473817,38.0964027 Z M215.366528,49.6963415 C207.308315,49.7267788 198.036033,51.3777786 187.626396,55.7137376 C163.748604,65.6664311 152.28166,86.2355535 147.412044,101.231301 C147.412044,101.231301 131.912659,146.982339 166.930531,172.11756 C166.930531,172.11756 199.406863,196.315546 235.965668,170.626657 L235.335287,174.639086 C235.137584,175.89948 235.500638,177.183325 236.329124,178.153526 C237.157611,179.123727 238.368759,179.683357 239.644563,179.685476 L269.939575,179.685476 C272.264316,179.685476 274.238845,177.994452 274.602398,175.699729 L293.030224,58.835628 C293.230087,57.5741949 292.868025,56.2884655 292.039287,55.3166873 C291.21055,54.344909 289.998115,53.7843818 288.720948,53.7825682 L258.425936,53.7825682 C256.101195,53.7825682 254.12333,55.4735922 253.763112,57.7683151 L252.772512,64.0587909 C252.772512,64.0587909 239.541167,49.6067061 215.363192,49.6963415 L215.366528,49.6963415 Z M216.357128,86.609113 C219.835901,86.609113 223.017828,87.0894038 225.87289,88.0066259 C238.944139,92.2025001 246.355293,104.760104 244.210661,118.37168 C241.565726,135.131829 227.820736,147.472636 210.193395,147.472636 C206.717957,147.472636 203.53603,146.99568 200.677633,146.078458 C187.60972,141.882584 180.15187,129.32498 182.296502,115.713404 C184.941437,98.9532547 198.729787,86.6057777 216.357128,86.6057777 L216.357128,86.609113 Z" id="Shape" fill="#003087"></path>
                <path d="M467.889444,0 C465.564702,0 463.590173,1.68768865 463.22662,3.98574691 L436.316991,174.639086 C436.11911,175.900631 436.483015,177.185605 437.312999,178.156058 C438.142983,179.12651 439.355969,179.685476 440.632938,179.685476 L472.545596,179.685476 C474.867002,179.685476 476.844867,177.994452 477.20842,175.699729 L485.113207,125.586049 C485.473425,123.291326 487.451289,121.600302 489.77603,121.600302 L518.790267,121.600302 C552.690795,121.600302 581.464886,96.8653237 586.718067,63.3483607 C592.021279,29.5478928 565.618624,0.0733777674 528.192627,0 L467.889444,0 Z M498.911562,38.0964027 L522.12562,38.0964027 C541.237193,38.0964027 547.460962,49.3732314 545.493103,61.8441165 C543.525245,74.3416844 533.862727,83.5472589 515.37153,83.5472589 L491.743889,83.5472589 L498.911562,38.0964027 Z M651.627373,49.6963415 C643.56916,49.7267788 634.296879,51.3777786 623.887242,55.7137376 C600.009449,65.6664311 588.542505,86.2355535 583.67289,101.231301 C583.67289,101.231301 568.180175,146.982339 603.198047,172.11756 C603.198047,172.11756 635.667709,196.315546 672.229849,170.626657 L671.599467,174.639086 C671.401586,175.900631 671.765491,177.185605 672.595475,178.156058 C673.425458,179.12651 674.638445,179.685304 675.915414,179.685476 L706.207091,179.685476 C708.531832,179.685476 710.506361,177.994452 710.869914,175.699729 L729.304411,58.835628 C729.504455,57.5730447 729.141543,56.2861836 728.311307,55.3141532 C727.481071,54.3421229 726.266796,53.782432 724.988464,53.7825682 L694.693452,53.7825682 C692.368711,53.7825682 690.390846,55.4735922 690.030628,57.7683151 L689.040028,64.0587909 C689.040028,64.0587909 675.808683,49.6067061 651.630708,49.6963415 L651.627373,49.6963415 Z M652.617973,86.609113 C656.096746,86.609113 659.278673,87.0894038 662.133735,88.0066259 C675.204984,92.2025001 682.616138,104.760104 680.471506,118.37168 C677.826571,135.131829 664.081581,147.472636 646.454241,147.472636 C642.978803,147.472636 639.796876,146.99568 636.938478,146.078458 C623.870565,141.882584 616.412715,129.32498 618.557347,115.713404 C621.202282,98.9532547 634.990632,86.6057777 652.617973,86.6057777 L652.617973,86.609113 Z" id="Shape" fill="#0070E0"></path>
                <path d="M307.405596,53.7825682 C305.004141,53.7825682 303.296441,56.1273214 304.030218,58.4120382 L337.243664,161.477783 L307.212145,210.047195 C305.754596,212.405289 307.448955,215.450467 310.220634,215.450467 L345.715461,215.450467 C347.779918,215.448665 349.693464,214.36858 350.76185,212.602075 L443.521354,59.1524866 C444.94555,56.794392 443.24452,53.7792328 440.489518,53.7792328 L404.998026,53.7792328 C402.912752,53.7810185 400.983105,54.8827683 399.921619,56.6776546 L363.409509,118.32165 L344.874952,57.134598 C344.271253,55.1433922 342.433473,53.7792328 340.355548,53.7792328 L307.405596,53.7825682 Z" id="Path" fill="#003087"></path>
                <path d="M763.725254,0 C761.403849,0 759.425984,1.691024 759.062431,3.98574691 L732.146131,174.632416 C731.946087,175.894999 732.308999,177.18186 733.139235,178.153891 C733.969471,179.125921 735.183746,179.685476 736.462078,179.685476 L768.374736,179.685476 C770.696142,179.685476 772.674007,177.994452 773.03756,175.699729 L799.947189,5.04638919 C800.144891,3.78599518 799.781837,2.50215057 798.953351,1.53194955 C798.124864,0.561748538 796.913716,0.00211872924 795.637912,0 L763.725254,0 Z" id="Path" fill="#0070E0"></path>
            </g>
        </g>
    </g>
</svg>