<?xml version="1.0" encoding="UTF-8"?>
<svg width="980px" height="680px" viewBox="0 0 980 680" version="1.1" xmlns="http://www.w3.org/2000/svg" xmlns:xlink="http://www.w3.org/1999/xlink">
    <title>WW Unionpay</title>
    <defs>
        <linearGradient x1="50%" y1="0%" x2="50%" y2="100%" id="linearGradient-1">
            <stop stop-color="#FFFFFF" offset="0%"></stop>
            <stop stop-color="#EDEDED" offset="100%"></stop>
        </linearGradient>
        <rect id="path-2" x="30" y="1.42108547e-13" width="900" height="600" rx="80"></rect>
        <filter x="-6.7%" y="-10.0%" width="113.3%" height="120.0%" filterUnits="objectBoundingBox" id="filter-4">
            <feMorphology radius="2.5" operator="dilate" in="SourceAlpha" result="shadowSpreadOuter1"></feMorphology>
            <feOffset dx="0" dy="0" in="shadowSpreadOuter1" result="shadowOffsetOuter1"></feOffset>
            <feGaussianBlur stdDeviation="17.5" in="shadowOffsetOuter1" result="shadowBlurOuter1"></feGaussianBlur>
            <feColorMatrix values="0 0 0 0 0   0 0 0 0 0   0 0 0 0 0  0 0 0 0.5 0" type="matrix" in="shadowBlurOuter1"></feColorMatrix>
        </filter>
    </defs>
    <g id="WW-Unionpay" stroke="none" stroke-width="1" fill="none" fill-rule="evenodd">
        <g transform="translate(10, 40)">
            <mask id="mask-3" fill="white">
                <use xlink:href="#path-2"></use>
            </mask>
            <g id="Rectangle">
                <use fill="black" fill-opacity="1" filter="url(#filter-4)" xlink:href="#path-2"></use>
                <use fill="url(#linearGradient-1)" fill-rule="evenodd" xlink:href="#path-2"></use>
            </g>
            <g id="Logo" mask="url(#mask-3)" fill-rule="nonzero">
                <g transform="translate(-0, 0)">
                    <path d="M187.844331,0 L427.254953,0 C460.674522,0 481.460357,27.2398367 473.664211,60.7702782 L362.201459,539.32309 C354.335286,572.736822 320.87487,600 287.43196,600 L48.0446806,600 C14.6717963,600 -6.16072658,572.736822 1.63542202,539.32309 L113.144856,60.7702782 C120.941005,27.2398367 154.383915,0 187.844331,0" id="Path" fill="#E21836"></path>
                    <path d="M407.333924,0 L682.650013,0 C716.063741,0 700.996636,27.2398367 693.136296,60.7702782 L581.691054,539.32309 C573.871563,572.736822 576.310775,600 542.827016,600 L267.510933,600 C234.027175,600 213.305525,572.736822 221.1717,539.32309 L332.611107,60.7702782 C340.523964,27.2398367 373.896849,0 407.333924,0" id="Path" fill="#00447C"></path>
                    <path d="M671.729567,0 L911.140185,0 C944.60644,0 965.392279,27.2398367 957.53194,60.7702782 L846.086697,539.32309 C838.220524,572.736822 804.736762,600 771.276348,600 L531.976601,600 C498.492843,600 477.724511,572.736822 485.567343,539.32309 L597.03009,60.7702782 C604.826243,27.2398367 638.245809,0 671.729567,0" id="Path" fill="#007B84"></path>
                    <path d="M250.369909,153.362381 C225.750186,153.613305 218.479228,153.362381 216.156722,152.813849 C215.263899,157.056215 198.650399,233.693057 198.603715,233.757246 C195.02659,249.262012 192.423985,260.314335 183.583292,267.451079 C178.564813,271.600077 172.706031,273.601633 165.913578,273.601633 C154.995469,273.601633 148.634838,268.18051 147.566953,257.898464 L147.362713,254.368022 C147.362713,254.368022 150.688913,233.599689 150.688913,233.48298 C150.688913,233.48298 168.12521,163.644427 171.247171,154.41276 C171.410563,153.887571 171.457247,153.613305 171.498094,153.362381 C137.559172,153.659988 131.542833,153.362381 131.128517,152.813849 C130.900934,153.566621 130.060631,157.896518 130.060631,157.896518 L112.256702,236.610776 L110.727816,243.286521 L107.769248,265.122739 C107.769248,271.600077 109.041374,276.886986 111.573955,281.356934 C119.685218,295.53122 142.82274,297.65532 155.911633,297.65532 C172.776056,297.65532 188.595935,294.07236 199.286462,287.530831 C217.843163,276.566038 222.698251,259.427349 227.028147,244.19685 L229.035538,236.383194 C229.035538,236.383194 246.997025,163.848668 250.048959,154.41276 C250.16567,153.887571 250.212352,153.613305 250.369909,153.362381 Z M311.482728,211.876678 C307.15283,211.876678 299.239973,212.927056 292.132407,216.410815 C289.553143,217.73546 287.113929,219.264345 284.540498,220.787396 L286.863004,212.401867 L285.590879,210.98969 C270.517935,214.041626 267.145051,214.450106 253.22169,216.410815 L252.054601,217.186928 C250.438185,230.590936 249.002665,240.668741 243.009669,267.015756 C240.728012,276.725929 238.358822,286.529469 235.983798,296.2163 L236.625695,297.447578 C250.893349,296.694807 255.223245,296.694807 267.623556,296.899046 L268.627252,295.807819 C270.202822,287.737405 270.407061,285.846723 273.896656,269.501654 C275.536415,261.752188 278.955982,244.724372 280.642425,238.66135 C283.741043,237.225831 286.798814,235.813654 289.716534,235.813654 C296.666545,235.813654 295.820406,241.876677 295.551975,244.29255 C295.254368,248.348181 292.721786,261.594632 290.125016,272.967905 L288.391889,280.308889 C287.183954,285.730014 285.859307,290.999416 284.651372,296.373857 L285.176561,297.447578 C299.239973,296.694807 303.529023,296.694807 315.538359,296.899046 L316.950536,295.807819 C319.121319,283.203268 319.757382,279.830384 323.608773,261.477922 L325.546139,253.045711 C329.309999,236.543084 331.200682,228.175063 328.352987,221.359269 C325.3419,213.720676 318.117625,211.876678 311.482728,211.876678 Z M379.752715,229.154833 C372.277515,230.590353 367.509959,231.547363 362.771583,232.16592 C358.074052,232.918693 353.493231,233.60144 346.268956,234.605135 L345.697083,235.124488 L345.171894,235.538806 C344.419122,240.919083 343.893931,245.569927 342.896072,251.037736 C342.049933,256.692277 340.74863,263.117097 338.630365,272.348765 C336.990606,279.415482 336.144467,281.878039 335.210796,284.363938 C334.300467,286.849834 333.296772,289.265707 331.452772,296.215716 L331.884596,296.857616 L332.246392,297.446995 C338.997997,297.126045 343.415426,296.898463 347.955399,296.857616 C352.489536,296.694223 357.187065,296.857616 364.458024,296.898463 L365.094088,296.379109 L365.776835,295.807236 C366.827213,289.539973 366.98477,287.85353 367.626668,284.795759 C368.262731,281.516241 369.359795,276.97627 372.049932,264.850224 C373.322059,259.154833 374.740072,253.476951 376.058881,247.664851 C377.430211,241.876093 378.865727,236.174869 380.23122,230.479479 L380.026981,229.790898 L379.752715,229.154833 Z M379.912021,205.858587 C373.119569,201.849641 361.197764,203.121766 353.174032,208.6596 C345.173645,214.086559 344.263316,221.789341 351.032427,225.850807 C357.70817,229.748881 369.676659,228.58763 377.630362,223.003112 C385.613248,217.459444 386.611107,209.826687 379.912021,205.858587 Z M420.990603,298.703365 C434.733068,298.703365 448.819821,294.916164 459.422817,283.677105 C467.580764,274.562148 471.321279,261.000584 472.616749,255.416068 C476.835774,236.90605 473.550419,228.263761 469.424762,223.000195 C463.157499,214.976463 452.081835,212.403034 440.591852,212.403034 C433.682689,212.403034 417.226747,213.085781 404.371274,224.937561 C395.139604,233.486481 390.873897,245.087338 388.300468,256.209686 C385.703699,267.542112 382.715951,287.942812 401.476893,295.534721 C407.26565,298.020619 415.610332,298.703365 420.990603,298.703365 Z M419.916884,257.055825 C423.08553,243.039098 426.826046,231.274848 436.372827,231.274848 C443.853862,231.274848 444.396557,240.028011 441.070357,254.091421 C440.475143,257.213382 437.744157,268.820075 434.050323,273.762693 C431.471057,277.409843 428.419123,279.621475 425.046237,279.621475 C424.042541,279.621475 418.072886,279.621475 417.979518,270.757441 C417.932836,266.38086 418.825657,261.910912 419.916884,257.055825 Z M506.969988,296.900797 L508.043707,295.80957 C509.566758,287.739156 509.817683,285.842637 513.190569,269.503405 C514.87701,261.753939 518.3666,244.726123 520.006363,238.6631 C523.110816,237.221747 526.116068,235.80957 529.127154,235.80957 C536.030479,235.80957 535.190177,241.872593 534.915915,244.288464 C534.664986,248.349932 532.132409,261.590546 529.48895,272.963819 L527.849195,280.304805 C526.594574,285.731764 525.229081,290.995332 524.021145,296.375608 L524.546336,297.449329 C538.65643,296.696556 542.782084,296.696556 554.861448,296.900797 L556.320309,295.80957 C558.438573,283.199183 559.010446,279.826298 562.978546,261.479673 L564.86923,253.041627 C568.650594,236.539 570.564616,228.176814 567.763607,221.36102 C564.664987,213.722427 557.394028,211.878429 550.8525,211.878429 C546.516766,211.878429 538.563063,212.922972 531.496343,216.412566 C528.9696,217.737211 526.437016,219.260261 523.951118,220.789147 L526.116068,212.403618 L524.954815,210.985606 C509.887709,214.043377 506.444797,214.451858 492.538942,216.412566 L491.471056,217.188679 C489.784615,230.592686 488.413285,240.664657 482.420288,267.017507 C480.138633,276.72768 477.769444,286.531219 475.400255,296.218051 L476.036317,297.449329 C490.32731,296.696556 494.59302,296.696556 506.969988,296.900797 Z M610.639505,297.446411 C611.526493,293.116514 616.795896,267.452247 616.842578,267.452247 C616.842578,267.452247 621.330032,248.621279 621.604302,247.938533 C621.604302,247.938533 623.016477,245.977826 624.428652,245.201712 L626.506067,245.201712 C646.107316,245.201712 668.24114,245.201712 685.589904,232.439603 C697.395002,223.686442 705.465415,210.76094 709.065881,195.051936 C709.999554,191.200545 710.688136,186.619723 710.688136,182.038903 C710.688136,176.022564 709.4802,170.070414 705.990606,165.419568 C697.144077,153.042599 679.526885,152.815016 659.190373,152.721649 C659.126183,152.721649 649.165083,152.815016 649.165083,152.815016 C623.133185,153.135966 612.69358,153.042599 608.404532,152.517409 C608.042736,154.413927 607.359987,157.786812 607.359987,157.786812 C607.359987,157.786812 598.034954,201.004085 598.034954,201.07411 C598.034954,201.07411 575.720231,292.958957 574.669849,297.288854 C597.398891,297.014589 606.718091,297.014589 610.639505,297.446411 Z M627.918246,220.675355 C627.918246,220.675355 637.83266,177.545614 637.785978,177.709006 L638.106923,175.497374 L638.246976,173.810932 L642.209239,174.219412 C642.209239,174.219412 662.656622,175.97588 663.135131,176.022564 C671.205544,179.144525 674.531744,187.191597 672.20924,197.695389 C670.090976,207.294689 663.864562,215.365105 655.864173,219.263178 C649.275958,222.566037 641.205542,222.840303 632.890042,222.840303 L627.509767,222.840303 L627.918246,220.675355 Z M689.647873,257.854698 C687.027759,269.02373 684.016669,289.424432 702.684244,296.695391 C708.636392,299.227971 713.969985,299.980742 719.391112,299.706478 C725.11568,299.397199 730.420094,296.526163 735.333534,292.39467 C734.890044,294.092784 734.44655,295.790897 734.003057,297.494846 L734.849192,298.586073 C748.276542,298.020035 752.443047,298.020035 766.990798,298.130908 L768.309609,297.127212 C770.433711,284.639369 772.435267,272.513325 777.955595,248.62303 C780.645728,237.179731 783.330032,225.847306 786.090197,214.45069 L785.658377,213.196071 C770.63795,215.979576 766.623168,216.574792 752.174615,218.623031 L751.077554,219.515852 C750.931667,220.677106 750.779947,221.791674 750.639894,222.906244 C748.39325,219.276599 745.137077,216.177982 740.112762,214.246451 C733.687938,211.719704 718.597492,214.975879 705.625307,226.786811 C696.510349,235.219024 692.133771,246.773195 689.647873,257.854698 Z M721.194262,258.537445 C724.40959,244.771639 728.103424,233.1241 737.673549,233.1241 C743.724898,233.1241 746.911049,238.708616 746.263315,248.232056 C745.749799,250.60708 745.195429,253.110484 744.536022,255.940673 C743.579015,260.031317 742.540304,264.086947 741.530774,268.148415 C740.503733,270.926085 739.307471,273.546197 737.994497,275.290995 C735.53194,278.780587 729.67316,280.945535 726.300274,280.945535 C725.34326,280.945535 719.437794,280.945535 719.233555,272.239059 C719.186869,267.903327 720.079694,263.439214 721.194262,258.537445 Z M885.931667,213.084613 L884.770417,211.759969 C869.907548,214.771056 867.217407,215.249562 853.562481,217.093562 L852.55878,218.097256 C852.512102,218.260649 852.47125,218.511574 852.401227,218.739156 L852.354541,218.511574 C842.189206,241.96421 842.486813,236.904883 834.212157,255.368216 C834.165472,254.527913 834.165472,254.002723 834.118793,253.1099 L832.047207,213.084613 L830.745904,211.759969 C815.176952,214.771056 814.809319,215.249562 800.430792,217.093562 L799.31039,218.097256 C799.152829,218.575764 799.152829,219.100953 799.059465,219.672826 L799.152829,219.877067 C800.950146,229.062051 800.518322,227.013811 802.321476,241.509045 C803.161778,248.622447 804.282183,255.776697 805.122485,262.802568 C806.540501,274.56098 807.334121,280.349738 809.067244,298.293717 C799.357069,314.317837 797.057906,320.38086 787.709531,334.444272 L787.773721,334.584322 L781.191344,344.994747 C780.438572,346.091811 779.755828,346.844583 778.798813,347.165533 C777.748435,347.684887 776.382942,347.778252 774.486421,347.778252 L770.839273,347.778252 L765.418149,365.809765 L784.015698,366.130715 C794.933804,366.084031 801.796285,360.97802 805.490118,354.115542 L817.184341,334.076639 L816.997606,334.076639 L818.228886,332.664462 C826.095059,315.730014 885.931667,213.084613 885.931667,213.084613 Z M689.647287,449.901378 L681.75777,449.901378 L710.958318,353.319003 L720.645148,353.319003 L723.720423,343.369577 L724.01803,354.433573 C723.656233,361.272709 729.036512,367.335732 743.169947,366.332037 L759.515015,366.332037 L765.140381,347.734487 L758.989827,347.734487 C755.453551,347.734487 753.813792,346.841664 754.018035,344.927641 L753.720424,333.671075 L723.451994,333.671075 L723.451994,333.729429 C713.665963,333.93367 684.442074,334.668936 678.524937,336.244505 C671.364854,338.088504 663.819625,343.515464 663.819625,343.515464 L666.784029,333.554366 L638.470472,333.554366 L632.570844,353.319003 L602.979325,451.377747 L597.237249,451.377747 L591.60605,469.841082 L647.999749,469.841082 L646.109065,475.997469 L673.89743,475.997469 L675.741432,469.841082 L683.537582,469.841082 L689.647287,449.901378 Z M666.509766,372.943591 C661.975631,374.19821 653.537581,378.002917 653.537581,378.002917 L661.041957,353.319003 L683.537581,353.319003 L678.110622,371.303832 C678.110622,371.303832 671.160611,371.712312 666.509766,372.943591 Z M666.94159,408.207158 C666.94159,408.207158 659.87487,409.094146 655.224022,410.144524 C650.643201,411.533362 642.053434,415.90994 642.053434,415.90994 L649.802899,390.222331 L672.415232,390.222331 L666.94159,408.207158 Z M654.337038,450.128962 L631.77139,450.128962 L638.312919,428.450302 L660.80854,428.450302 L654.337038,450.128962 Z M708.680157,390.222331 L741.206905,390.222331 L736.532716,405.359463 L703.574152,405.359463 L698.625693,421.908774 L727.464441,421.908774 L705.628227,452.655709 C704.09934,454.914027 702.72801,455.71348 701.204963,456.349543 C699.676076,457.125655 697.668687,458.035984 695.346179,458.035984 L687.34579,458.035984 L681.848803,476.160864 L702.774692,476.160864 C713.651954,476.160864 720.076773,471.212409 724.820989,464.717562 L739.79473,444.223497 L743.010059,465.03268 C743.692803,468.93075 746.493816,471.212409 748.390334,472.099396 C750.485257,473.149775 752.650207,474.952928 755.707978,475.221357 C758.987492,475.361407 761.356682,475.472282 762.932251,475.472282 L773.214299,475.472282 L779.388194,455.188289 L775.332564,455.188289 C773.004219,455.188289 768.995274,454.797314 768.31253,454.067884 C767.629781,453.180896 767.629781,451.815403 767.262148,449.737988 L764.000137,428.882122 L750.642811,428.882122 L756.501598,421.908774 L789.395972,421.908774 L794.455299,405.359463 L764.000137,405.359463 L768.744349,390.222331 L799.106147,390.222331 L804.737347,371.554757 L714.217993,371.554757 L708.680157,390.222331 Z M433.958123,454.343903 L441.55003,429.088118 L472.752133,429.088118 L478.453356,410.303834 L447.222078,410.303834 L451.989635,394.75822 L482.508986,394.75822 L488.163531,376.569151 L411.800953,376.569151 L406.263121,394.75822 L423.611885,394.75822 L418.984382,410.303834 L401.588932,410.303834 L395.82352,429.409066 L413.166446,429.409066 L403.047793,462.822798 C401.6823,467.246062 403.689693,468.932503 404.961818,470.986578 C406.263121,472.988133 407.581932,474.312778 410.546336,475.065549 C413.604107,475.748297 415.69903,476.156776 418.546725,476.156776 L453.722762,476.156776 L459.990024,455.347596 L444.397724,457.489205 C441.386639,457.489205 433.047794,457.127408 433.958123,454.343903 Z M437.536997,333.440576 L429.629976,347.731571 C427.937697,350.853529 426.414647,352.790897 425.043321,353.683718 C423.835385,354.436492 421.442855,354.751604 417.976601,354.751604 L413.850944,354.751604 L408.336453,373.03404 L422.038069,373.03404 C428.626279,373.03404 433.685606,370.618168 436.101481,369.410231 C438.698251,368.021397 439.380995,368.815017 441.388388,366.877651 L446.015895,362.868702 L488.801343,362.868702 L494.479228,343.833496 L463.160416,343.833496 L468.628225,333.440576 L437.536997,333.440576 Z M500.70214,454.710951 C499.97271,453.660569 500.497901,451.810737 501.612469,447.959346 L513.306692,409.25287 L554.907548,409.25287 C560.970571,409.16534 565.34715,409.095313 568.194844,408.891074 C571.252616,408.570122 574.578819,407.478895 578.202626,405.518188 C581.943146,403.464113 583.857167,401.299163 585.473585,398.813265 C587.276735,396.333204 590.171115,390.906243 592.657014,382.538224 L607.356489,333.555534 L564.1859,333.806459 C564.1859,333.806459 550.892766,335.767166 545.03982,337.932114 C539.134354,340.347987 530.696304,347.093757 530.696304,347.093757 L534.594381,333.666407 L507.926413,333.666407 L470.591267,457.488623 C469.266623,462.297021 468.379635,465.786615 468.174158,467.881539 C468.105369,470.139857 471.023091,472.37483 472.913775,474.061271 C475.148748,475.747716 478.451603,475.473449 481.620249,475.747716 C484.952287,475.998641 489.690665,476.156194 496.23219,476.156194 L516.726259,476.156194 L523.016863,454.915191 L504.67024,456.648317 C502.709533,456.648317 501.291521,455.597935 500.70214,454.710951 Z M520.851917,383.110094 L564.547696,383.110094 L561.770028,391.816572 C561.379054,392.020811 560.44538,391.384749 555.998775,391.90994 L518.161779,391.90994 L520.851917,383.110094 Z M529.605077,353.909551 L573.668487,353.909551 L570.499844,364.395837 C570.499844,364.395837 549.731513,364.191597 546.405313,364.804317 C531.770023,367.336899 523.221106,375.15639 523.221106,375.15639 L529.605077,353.909551 Z M562.748045,420.972184 C562.386249,422.273487 561.814376,423.067107 561.014922,423.662321 C560.127931,424.234194 558.692415,424.438433 556.550809,424.438433 L550.324392,424.438433 L550.692026,413.835441 L524.794341,413.835441 L523.743962,465.67166 C523.703114,469.412176 524.06491,471.577126 526.801733,473.310252 C529.538553,475.475199 537.970765,475.749465 549.320695,475.749465 L565.549058,475.749465 L571.407842,456.346626 L557.280236,457.122739 L552.58271,457.397005 C551.94081,457.122739 551.328088,456.871814 550.645344,456.189069 C550.050126,455.599688 549.046433,455.961489 549.209824,452.220969 L549.320695,438.933673 L564.136883,438.320951 C572.137272,438.320951 575.55684,435.718341 578.474558,433.23828 C581.258063,430.863257 582.168391,428.132271 583.218774,424.438433 L585.704672,412.674187 L565.344815,412.674187 L562.748045,420.972184 Z" id="Shape" fill="#FEFEFE"></path>
                </g>
            </g>
        </g>
    </g>
</svg>